<svg width="304" height="330" viewBox="0 0 304 330" fill="none" xmlns="http://www.w3.org/2000/svg">
<path d="M205.136 329.996C197.053 330.066 188.417 329.146 179.228 327.141C156.36 322.155 145.652 307.44 140.401 289.738C148.139 273.931 154.287 257.923 157.673 240.014C151.04 244.785 144.063 241.19 142.059 236.557C139.088 252.046 135.15 266.221 129.761 280.072C96.0467 304.19 72.4188 294.523 67.859 293.044C9.43864 274.159 -7.21144 227.429 2.66807 176.675C16.0158 206.685 62.4702 224.179 81.1238 224.11C85.8908 224.041 113.595 217.541 90.5197 210.281C52.6598 198.318 22.6136 176.605 9.81863 150.813C15.8845 133.872 24.5619 116.862 35.305 100.75C45.2674 129.792 63.092 162.292 102.126 187.254C112.144 193.685 118.569 186.77 110.555 178.127C73.5933 138.436 58.6704 106.075 54.5942 75.3729C66.6154 61.3358 80.2948 48.4743 95.0104 37.549C96.1158 75.1654 109.035 118.936 133.907 151.366C136.463 155.93 149.106 153.233 144.684 145.143C125.409 109.947 114.839 62.2347 113.94 24.8257C131.627 14.3152 150.488 6.6398 169.832 2.76752C159.4 27.1076 157.051 58.4316 165.065 86.2982C168.589 98.6066 179.435 91.8992 177.224 83.394C170.316 56.5646 183.166 22.8896 196.638 0.00158691C210.939 -0.0675659 225.378 2.14517 239.68 7.05469C247.832 9.82062 255.362 15.5599 262.271 23.5119C254.464 39.2776 243.618 54.0062 230.076 63.0645C224.964 66.5219 227.866 79.3835 237.123 73.2984C250.319 64.5858 263.1 52.7615 273.602 39.6234C280.372 51.2402 286.175 65.2081 290.873 80.6973C270.354 104.692 233.324 137.399 201.889 151.021C195.256 153.856 195.878 165.888 207.139 162.361C240.163 152.127 274.845 130.415 297.713 108.426C300.407 122.186 302.342 136.638 303.309 151.228C276.365 170.313 237.331 197.696 201.681 202.951C195.118 203.919 192.286 215.812 203.754 215.259C244.032 213.392 279.612 199.009 304 180.339C303.655 200.116 301.513 219.546 297.299 237.663C268.489 247.067 218.884 250.455 199.54 241.881C191.871 238.493 178.883 245.2 194.842 253.36C220.819 268.641 260.129 269.125 290.39 260.966C275.674 301.051 248.454 329.644 205.136 329.996Z" fill="#FFF1D4"/>
</svg>
